name C:\Users\u0101727\Documents\MyRepositories\upper-imu-dc\OpenSim\subject0\MA\MA_Splines\angle_in_n6_dof6_2.mot
datacolumns 7
datarows 40
range 200.01000000 200.40000000
endheader 
time	clav_prot	clav_elev	scapula_abduction	scapula_elevation	scapula_upward_rot	scapula_winging	
        200.01000000	        -33.36984042	          7.05722688	         -5.58217594	         -1.85741863	         54.58874201	         -4.74553397	
        200.02000000	        -27.88187210	          7.05722688	         -5.58217594	         -1.85741863	         54.58874201	         -4.74553397	
        200.03000000	        -22.39390379	          7.05722688	         -5.58217594	         -1.85741863	         54.58874201	         -4.74553397	
        200.04000000	        -16.90593547	          7.05722688	         -5.58217594	         -1.85741863	         54.58874201	         -4.74553397	
        200.05000000	        -44.34577705	         11.96046367	         -5.58217594	         -1.85741863	         54.58874201	         -4.74553397	
        200.06000000	        -38.85780873	         11.96046367	         -5.58217594	         -1.85741863	         54.58874201	         -4.74553397	
        200.07000000	        -33.36984042	         11.96046367	         -5.58217594	         -1.85741863	         54.58874201	         -4.74553397	
        200.08000000	        -27.88187210	         11.96046367	         -5.58217594	         -1.85741863	         54.58874201	         -4.74553397	
        200.09000000	        -22.39390379	         11.96046367	         -5.58217594	         -1.85741863	         54.58874201	         -4.74553397	
        200.10000000	        -16.90593547	         11.96046367	         -5.58217594	         -1.85741863	         54.58874201	         -4.74553397	
        200.11000000	        -44.34577705	         16.86370047	         -5.58217594	         -1.85741863	         54.58874201	         -4.74553397	
        200.12000000	        -38.85780873	         16.86370047	         -5.58217594	         -1.85741863	         54.58874201	         -4.74553397	
        200.13000000	        -33.36984042	         16.86370047	         -5.58217594	         -1.85741863	         54.58874201	         -4.74553397	
        200.14000000	        -27.88187210	         16.86370047	         -5.58217594	         -1.85741863	         54.58874201	         -4.74553397	
        200.15000000	        -22.39390379	         16.86370047	         -5.58217594	         -1.85741863	         54.58874201	         -4.74553397	
        200.16000000	        -16.90593547	         16.86370047	         -5.58217594	         -1.85741863	         54.58874201	         -4.74553397	
        200.17000000	        -44.34577705	         -7.65248351	          2.85286645	         -1.85741863	         54.58874201	         -4.74553397	
        200.18000000	        -38.85780873	         -7.65248351	          2.85286645	         -1.85741863	         54.58874201	         -4.74553397	
        200.19000000	        -33.36984042	         -7.65248351	          2.85286645	         -1.85741863	         54.58874201	         -4.74553397	
        200.20000000	        -27.88187210	         -7.65248351	          2.85286645	         -1.85741863	         54.58874201	         -4.74553397	
        200.21000000	        -22.39390379	         -7.65248351	          2.85286645	         -1.85741863	         54.58874201	         -4.74553397	
        200.22000000	        -16.90593547	         -7.65248351	          2.85286645	         -1.85741863	         54.58874201	         -4.74553397	
        200.23000000	        -44.34577705	         -2.74924671	          2.85286645	         -1.85741863	         54.58874201	         -4.74553397	
        200.24000000	        -38.85780873	         -2.74924671	          2.85286645	         -1.85741863	         54.58874201	         -4.74553397	
        200.25000000	        -33.36984042	         -2.74924671	          2.85286645	         -1.85741863	         54.58874201	         -4.74553397	
        200.26000000	        -27.88187210	         -2.74924671	          2.85286645	         -1.85741863	         54.58874201	         -4.74553397	
        200.27000000	        -22.39390379	         -2.74924671	          2.85286645	         -1.85741863	         54.58874201	         -4.74553397	
        200.28000000	        -16.90593547	         -2.74924671	          2.85286645	         -1.85741863	         54.58874201	         -4.74553397	
        200.29000000	        -44.34577705	          2.15399008	          2.85286645	         -1.85741863	         54.58874201	         -4.74553397	
        200.30000000	        -38.85780873	          2.15399008	          2.85286645	         -1.85741863	         54.58874201	         -4.74553397	
        200.31000000	        -33.36984042	          2.15399008	          2.85286645	         -1.85741863	         54.58874201	         -4.74553397	
        200.32000000	        -27.88187210	          2.15399008	          2.85286645	         -1.85741863	         54.58874201	         -4.74553397	
        200.33000000	        -22.39390379	          2.15399008	          2.85286645	         -1.85741863	         54.58874201	         -4.74553397	
        200.34000000	        -16.90593547	          2.15399008	          2.85286645	         -1.85741863	         54.58874201	         -4.74553397	
        200.35000000	        -44.34577705	          7.05722688	          2.85286645	         -1.85741863	         54.58874201	         -4.74553397	
        200.36000000	        -38.85780873	          7.05722688	          2.85286645	         -1.85741863	         54.58874201	         -4.74553397	
        200.37000000	        -33.36984042	          7.05722688	          2.85286645	         -1.85741863	         54.58874201	         -4.74553397	
        200.38000000	        -27.88187210	          7.05722688	          2.85286645	         -1.85741863	         54.58874201	         -4.74553397	
        200.39000000	        -22.39390379	          7.05722688	          2.85286645	         -1.85741863	         54.58874201	         -4.74553397	
        200.40000000	        -16.90593547	          7.05722688	          2.85286645	         -1.85741863	         54.58874201	         -4.74553397	
